<svg width="125" height="87" viewBox="0 0 125 87" fill="none" xmlns="http://www.w3.org/2000/svg">
<path id="Vector" d="M57.3368 84.6986C57.1728 85.3556 56.7932 85.939 56.2585 86.3561C55.7238 86.7731 55.0647 86.9997 54.3859 87C54.1364 86.9994 53.8879 86.9688 53.6457 86.909L37.4212 82.8625C37.0839 82.7763 36.7635 82.6344 36.4731 82.4426L24.3048 74.3497C23.9719 74.1285 23.6859 73.8441 23.4632 73.5126C23.2404 73.1812 23.0853 72.8092 23.0067 72.4179C22.8479 71.6278 23.0103 70.807 23.4581 70.1363C23.9058 69.4655 24.6024 68.9997 25.3944 68.8413C25.7866 68.7629 26.1904 68.7623 26.5828 68.8395C26.9753 68.9168 27.3486 69.0704 27.6815 69.2916L39.4087 77.0912L55.1262 81.0112C55.5143 81.1081 55.8793 81.2805 56.2006 81.5183C56.5218 81.7562 56.7928 82.0549 56.9981 82.3975C57.2035 82.74 57.3391 83.1195 57.3972 83.5144C57.4553 83.9092 57.4348 84.3116 57.3368 84.6986ZM124.633 35.8373C124.342 36.7196 123.878 37.5355 123.269 38.2379C122.66 38.9402 121.917 39.5152 121.084 39.9293L108.915 45.999L80.8724 73.9754C80.3016 74.5428 79.5285 74.8612 78.7226 74.8606C78.4731 74.8602 78.2245 74.8296 77.9824 74.7695L45.5335 66.6766C45.1689 66.5821 44.825 66.4208 44.5194 66.2011L16.3092 46.1103L3.92279 39.9293C2.23946 39.0893 0.959458 37.6167 0.364263 35.8354C-0.230932 34.0541 -0.0925848 32.1098 0.748882 30.4302L13.3482 5.29651C14.1902 3.61717 15.6663 2.34021 17.4519 1.74643C19.2375 1.15265 21.1863 1.29067 22.8699 2.13014L34.4096 7.88625L61.6616 0.117011C62.2084 -0.0390038 62.788 -0.0390038 63.3348 0.117011L90.5868 7.88625L102.126 2.13014C103.81 1.29067 105.759 1.15265 107.544 1.74643C109.33 2.34021 110.806 3.61717 111.648 5.29651L124.247 30.4302C124.666 31.2615 124.916 32.1673 124.982 33.0953C125.048 34.0234 124.93 34.9553 124.633 35.8373ZM6.64546 34.502L16.5221 39.4539L30.0492 12.4841L20.1473 7.55748C19.9065 7.43822 19.6282 7.41917 19.3734 7.50453C19.1186 7.58989 18.9082 7.77267 18.7885 8.0127L6.18915 33.1464C6.07125 33.386 6.05303 33.6623 6.13845 33.9152C6.17808 34.0425 6.24355 34.1603 6.33077 34.2612C6.418 34.3622 6.52512 34.4441 6.64546 34.502ZM94.4401 51.8411L78.8595 39.3932C69.2263 47.6783 56.7638 48.9024 46.512 42.3673C45.6151 41.7983 44.8577 41.0356 44.2958 40.1355C43.7339 39.2353 43.3817 38.2208 43.2654 37.1668C43.1491 36.1127 43.2716 35.0461 43.6238 34.0456C43.9759 33.0451 44.5489 32.1362 45.3002 31.3862L68.4809 8.94846C68.8182 8.62404 69.2259 8.38169 69.6724 8.24032L62.4982 6.19179L36.2298 13.6575L21.7646 42.5393L47.5717 60.9255L77.7897 68.4621L94.4401 51.8411ZM103.404 42.8984L89.01 14.1634H71.8425L49.5794 35.7109C49.4807 35.8142 49.4062 35.9381 49.3615 36.0738C49.3168 36.2094 49.3029 36.3532 49.3209 36.4949C49.3366 36.6493 49.3878 36.7981 49.4704 36.9297C49.5531 37.0613 49.665 37.1721 49.7975 37.2536C56.5357 41.5479 67.1069 42.7517 76.5628 33.2476C77.0919 32.7176 77.7986 32.4013 78.5471 32.3593C79.2957 32.3173 80.0335 32.5526 80.6189 33.02L98.7801 47.5468L103.404 42.8984ZM118.797 33.1464L106.208 8.0127C106.088 7.77267 105.878 7.58989 105.623 7.50453C105.368 7.41917 105.09 7.43822 104.849 7.55748L94.9725 12.4841L108.474 39.4539L118.351 34.5273C118.471 34.4694 118.578 34.3875 118.666 34.2865C118.753 34.1856 118.818 34.0678 118.858 33.9405C118.904 33.8116 118.923 33.6748 118.914 33.5383C118.905 33.4018 118.869 33.2685 118.807 33.1464H118.797Z" fill="#BB1D1E"/>
</svg>
