<svg width="125" height="89" viewBox="0 0 125 89" fill="none" xmlns="http://www.w3.org/2000/svg">
<path id="Vector" d="M57.3368 86.6457C57.1728 87.3178 56.7932 87.9146 56.2585 88.3413C55.7238 88.7679 55.0647 88.9998 54.3859 89C54.1364 88.9993 53.8879 88.9681 53.6457 88.9069L37.4212 84.7674C37.0839 84.6792 36.7635 84.5341 36.4731 84.3379L24.3048 76.0589C23.9719 75.8326 23.6859 75.5416 23.4632 75.2026C23.2404 74.8635 23.0853 74.483 23.0067 74.0827C22.8479 73.2744 23.0103 72.4348 23.4581 71.7486C23.9058 71.0625 24.6024 70.5859 25.3944 70.4239C25.7866 70.3436 26.1904 70.343 26.5828 70.4221C26.9753 70.5011 27.3486 70.6582 27.6815 70.8845L39.4087 78.8634L55.1262 82.8735C55.5143 82.9727 55.8793 83.149 56.2006 83.3923C56.5218 83.6357 56.7928 83.9413 56.9981 84.2917C57.2035 84.642 57.3391 85.0303 57.3972 85.4342C57.4553 85.8382 57.4348 86.2498 57.3368 86.6457ZM124.633 36.6612C124.342 37.5637 123.878 38.3984 123.269 39.1169C122.66 39.8354 121.917 40.4235 121.084 40.8472L108.915 47.0565L80.8724 75.676C80.3016 76.2565 79.5285 76.5821 78.7226 76.5815C78.4731 76.5811 78.2245 76.5499 77.9824 76.4884L45.5335 68.2094C45.1689 68.1127 44.825 67.9478 44.5194 67.723L16.3092 47.1703L3.92279 40.8472C2.23946 39.9879 0.959458 38.4815 0.364263 36.6592C-0.230932 34.8369 -0.0925848 32.848 0.748882 31.1298L13.3482 5.41827C14.1902 3.70033 15.6663 2.39401 17.4519 1.78658C19.2375 1.17915 21.1863 1.32034 22.8699 2.1791L34.4096 8.06755L61.6616 0.119701C62.2084 -0.0399004 62.788 -0.0399004 63.3348 0.119701L90.5868 8.06755L102.126 2.1791C103.81 1.32034 105.759 1.17915 107.544 1.78658C109.33 2.39401 110.806 3.70033 111.648 5.41827L124.247 31.1298C124.666 31.9801 124.916 32.9067 124.982 33.8561C125.048 34.8055 124.93 35.7589 124.633 36.6612ZM6.64546 35.2951L16.5221 40.3608L30.0492 12.7711L20.1473 7.73121C19.9065 7.60921 19.6282 7.58973 19.3734 7.67705C19.1186 7.76437 18.9082 7.95135 18.7885 8.19691L6.18915 33.9084C6.07125 34.1535 6.05303 34.4362 6.13845 34.6949C6.17808 34.8251 6.24355 34.9456 6.33077 35.0488C6.418 35.1521 6.52512 35.2359 6.64546 35.2951ZM94.4401 53.0329L78.8595 40.2988C69.2263 48.7744 56.7638 50.0266 46.512 43.3413C45.6151 42.7592 44.8577 41.9789 44.2958 41.0581C43.7339 40.1373 43.3817 39.0995 43.2654 38.0212C43.1491 36.9429 43.2716 35.8517 43.6238 34.8282C43.9759 33.8047 44.5489 32.875 45.3002 32.1077L68.4809 9.15417C68.8182 8.82229 69.2259 8.57438 69.6724 8.42975L62.4982 6.33413L36.2298 13.9715L21.7646 43.5172L47.5717 62.3261L77.7897 70.0359L94.4401 53.0329ZM103.404 43.8846L89.01 14.489H71.8425L49.5794 36.5318C49.4807 36.6375 49.4062 36.7643 49.3615 36.903C49.3168 37.0418 49.3029 37.1889 49.3209 37.3338C49.3366 37.4919 49.3878 37.6441 49.4704 37.7787C49.5531 37.9132 49.665 38.0266 49.7975 38.11C56.5357 42.503 67.1069 43.7345 76.5628 34.0119C77.0919 33.4698 77.7986 33.1462 78.5471 33.1032C79.2957 33.0602 80.0335 33.3009 80.6189 33.779L98.7801 48.6399L103.404 43.8846ZM118.797 33.9084L106.208 8.19691C106.088 7.95135 105.878 7.76437 105.623 7.67705C105.368 7.58973 105.09 7.60921 104.849 7.73121L94.9725 12.7711L108.474 40.3608L118.351 35.321C118.471 35.2618 118.578 35.178 118.666 35.0747C118.753 34.9715 118.818 34.851 118.858 34.7208C118.904 34.5889 118.923 34.4489 118.914 34.3093C118.905 34.1697 118.869 34.0333 118.807 33.9084H118.797Z" fill="white"/>
</svg>
