<svg width="24" height="23" viewBox="0 0 24 23" fill="none" xmlns="http://www.w3.org/2000/svg">
<path id="Vector" d="M10.6045 20.9832L10.6038 20.9825C7.50435 18.0468 4.97078 15.6433 3.20626 13.3885C1.44782 11.1414 0.5 9.09901 0.5 6.89373C0.5 3.27672 3.19986 0.5 6.6 0.5C8.52857 0.5 10.3942 1.44046 11.6137 2.92452L12 3.39465L12.3863 2.92452C13.6058 1.44046 15.4714 0.5 17.4 0.5C20.8001 0.5 23.5 3.27672 23.5 6.89373C23.5 9.09901 22.5522 11.1414 20.7937 13.3885C19.0292 15.6433 16.4957 18.0468 13.3962 20.9825L13.3955 20.9832L12 22.31L10.6045 20.9832Z" stroke="#BB1D1E"/>
</svg>
