<svg width="68" height="68" viewBox="0 0 68 68" fill="none" xmlns="http://www.w3.org/2000/svg">
<path id="Vector" d="M19.72 0H48.28C59.16 0 68 8.84 68 19.72V48.28C68 53.5101 65.9224 58.5259 62.2241 62.2241C58.5259 65.9224 53.5101 68 48.28 68H19.72C8.84 68 0 59.16 0 48.28V19.72C0 14.4899 2.07764 9.47407 5.77585 5.77585C9.47407 2.07764 14.4899 0 19.72 0ZM19.04 6.8C15.7938 6.8 12.6805 8.08957 10.385 10.385C8.08957 12.6805 6.8 15.7938 6.8 19.04V48.96C6.8 55.726 12.274 61.2 19.04 61.2H48.96C52.2062 61.2 55.3195 59.9104 57.615 57.615C59.9104 55.3195 61.2 52.2062 61.2 48.96V19.04C61.2 12.274 55.726 6.8 48.96 6.8H19.04ZM51.85 11.9C52.9772 11.9 54.0582 12.3478 54.8552 13.1448C55.6522 13.9418 56.1 15.0228 56.1 16.15C56.1 17.2772 55.6522 18.3582 54.8552 19.1552C54.0582 19.9522 52.9772 20.4 51.85 20.4C50.7228 20.4 49.6418 19.9522 48.8448 19.1552C48.0478 18.3582 47.6 17.2772 47.6 16.15C47.6 15.0228 48.0478 13.9418 48.8448 13.1448C49.6418 12.3478 50.7228 11.9 51.85 11.9ZM34 17C38.5087 17 42.8327 18.7911 46.0208 21.9792C49.2089 25.1673 51 29.4913 51 34C51 38.5087 49.2089 42.8327 46.0208 46.0208C42.8327 49.2089 38.5087 51 34 51C29.4913 51 25.1673 49.2089 21.9792 46.0208C18.7911 42.8327 17 38.5087 17 34C17 29.4913 18.7911 25.1673 21.9792 21.9792C25.1673 18.7911 29.4913 17 34 17ZM34 23.8C31.2948 23.8 28.7004 24.8746 26.7875 26.7875C24.8746 28.7004 23.8 31.2948 23.8 34C23.8 36.7052 24.8746 39.2996 26.7875 41.2125C28.7004 43.1254 31.2948 44.2 34 44.2C36.7052 44.2 39.2996 43.1254 41.2125 41.2125C43.1254 39.2996 44.2 36.7052 44.2 34C44.2 31.2948 43.1254 28.7004 41.2125 26.7875C39.2996 24.8746 36.7052 23.8 34 23.8Z" fill="white"/>
</svg>
