<svg width="21" height="21" viewBox="0 0 21 21" fill="none" xmlns="http://www.w3.org/2000/svg">
<path id="Vector" d="M6.09 0H14.91C18.27 0 21 2.73 21 6.09V14.91C21 16.5252 20.3584 18.0742 19.2163 19.2163C18.0742 20.3584 16.5252 21 14.91 21H6.09C2.73 21 0 18.27 0 14.91V6.09C0 4.47483 0.641623 2.92582 1.78372 1.78372C2.92582 0.641623 4.47483 0 6.09 0ZM5.88 2.1C4.87748 2.1 3.91602 2.49825 3.20714 3.20714C2.49825 3.91602 2.1 4.87748 2.1 5.88V15.12C2.1 17.2095 3.7905 18.9 5.88 18.9H15.12C16.1225 18.9 17.084 18.5018 17.7929 17.7929C18.5018 17.084 18.9 16.1225 18.9 15.12V5.88C18.9 3.7905 17.2095 2.1 15.12 2.1H5.88ZM16.0125 3.675C16.3606 3.675 16.6944 3.81328 16.9406 4.05942C17.1867 4.30556 17.325 4.6394 17.325 4.9875C17.325 5.3356 17.1867 5.66944 16.9406 5.91558C16.6944 6.16172 16.3606 6.3 16.0125 6.3C15.6644 6.3 15.3306 6.16172 15.0844 5.91558C14.8383 5.66944 14.7 5.3356 14.7 4.9875C14.7 4.6394 14.8383 4.30556 15.0844 4.05942C15.3306 3.81328 15.6644 3.675 16.0125 3.675ZM10.5 5.25C11.8924 5.25 13.2277 5.80312 14.2123 6.78769C15.1969 7.77225 15.75 9.10761 15.75 10.5C15.75 11.8924 15.1969 13.2277 14.2123 14.2123C13.2277 15.1969 11.8924 15.75 10.5 15.75C9.10761 15.75 7.77225 15.1969 6.78769 14.2123C5.80312 13.2277 5.25 11.8924 5.25 10.5C5.25 9.10761 5.80312 7.77225 6.78769 6.78769C7.77225 5.80312 9.10761 5.25 10.5 5.25ZM10.5 7.35C9.66457 7.35 8.86335 7.68187 8.27261 8.27261C7.68187 8.86335 7.35 9.66457 7.35 10.5C7.35 11.3354 7.68187 12.1366 8.27261 12.7274C8.86335 13.3181 9.66457 13.65 10.5 13.65C11.3354 13.65 12.1366 13.3181 12.7274 12.7274C13.3181 12.1366 13.65 11.3354 13.65 10.5C13.65 9.66457 13.3181 8.86335 12.7274 8.27261C12.1366 7.68187 11.3354 7.35 10.5 7.35Z" fill="black"/>
</svg>
