<svg width="27" height="27" viewBox="0 0 27 27" fill="none" xmlns="http://www.w3.org/2000/svg">
<g id="Group">
<path id="Vector" fill-rule="evenodd" clip-rule="evenodd" d="M3.15212 3.01632C2.15278 4.01567 1.36005 5.20206 0.819209 6.50777C0.278367 7.81348 1.48914e-08 9.21293 0 10.6262C-1.48914e-08 12.0395 0.278367 13.4389 0.819209 14.7447C1.36005 16.0504 2.15278 17.2368 3.15212 18.2361C4.15147 19.2354 5.33786 20.0282 6.64357 20.569C7.94928 21.1099 9.34872 21.3882 10.762 21.3882C12.1753 21.3882 13.5747 21.1099 14.8805 20.569C16.1862 20.0282 17.3726 19.2354 18.3719 18.2361C20.332 16.2066 21.4166 13.4885 21.3921 10.6671C21.3676 7.8457 20.2359 5.14681 18.2408 3.15171C16.2457 1.1566 13.5468 0.0249239 10.7254 0.000406779C7.90404 -0.0241104 5.18589 1.0605 3.15642 3.02063L3.15212 3.01632ZM16.8482 16.7124C16.0521 17.5264 15.1024 18.1744 14.0541 18.6188C13.0059 19.0632 11.8799 19.2953 10.7413 19.3016C9.60272 19.3079 8.47422 19.0882 7.42112 18.6553C6.36803 18.2225 5.41127 17.585 4.60624 16.7798C3.80121 15.9746 3.1639 15.0178 2.73122 13.9646C2.29854 12.9114 2.07908 11.7829 2.08555 10.6443C2.09202 9.50575 2.32429 8.37978 2.76892 7.33159C3.21354 6.28341 3.86169 5.33384 4.67582 4.53787C6.2964 2.95344 8.47643 2.07203 10.7428 2.08491C13.0092 2.0978 15.1791 3.00393 16.7815 4.60668C18.384 6.20942 19.2897 8.37945 19.3022 10.6458C19.3147 12.9122 18.4329 15.0921 16.8482 16.7124Z" fill="black"/>
<path id="Vector_2" d="M16.8482 19.8008C16.4447 19.397 16.2181 18.8494 16.2183 18.2785C16.2185 17.7076 16.4454 17.1602 16.8493 16.7566C17.2531 16.3531 17.8007 16.1265 18.3716 16.1267C18.9425 16.1269 19.4899 16.3539 19.8934 16.7577L25.9796 22.8461C26.1852 23.0446 26.3491 23.2821 26.4619 23.5446C26.5747 23.8072 26.6341 24.0896 26.6366 24.3753C26.639 24.6611 26.5846 24.9445 26.4764 25.209C26.3682 25.4735 26.2084 25.7138 26.0063 25.9158C25.8042 26.1179 25.5639 26.2777 25.2995 26.3859C25.035 26.4941 24.7516 26.5486 24.4658 26.5461C24.1801 26.5436 23.8977 26.4842 23.6351 26.3714C23.3725 26.2586 23.1351 26.0947 22.9365 25.8891L16.8482 19.8008Z" fill="black"/>
</g>
</svg>
