<svg width="248" height="44" viewBox="0 0 248 44" fill="none" xmlns="http://www.w3.org/2000/svg">
<g id="Group 1">
<path id="Vector" d="M81.8836 12.1899H89.2216L82.4076 31.6146H75.0696L81.8836 12.1899Z" fill="white"/>
<path id="Vector_2" fill-rule="evenodd" clip-rule="evenodd" d="M92.3657 12.1904H99.7037L97.8652 17.4293L106.515 12.1904H113.853L95.6475 23.7566L92.892 31.6131H85.554L92.368 12.1885L92.3657 12.1904ZM97.6078 24.2771L103.636 20.8248L107.566 31.6169H100.228L97.6078 24.279V24.2771Z" fill="white"/>
<path id="Vector_3" fill-rule="evenodd" clip-rule="evenodd" d="M114.809 16.9372L115.928 13.748C116.253 12.8244 117.28 12.1885 118.445 12.1885H148.445L143.297 26.8644H158.497L156.831 31.6131H137.779C136.035 31.6131 134.778 30.2353 135.263 28.8555L139.443 16.9372H114.809ZM114.203 18.6634H121.541L121.086 19.958H134.19L132.827 23.8437H119.723L118.663 26.8644H133.339L131.675 31.6131H109.661L114.205 18.6634H114.203Z" fill="white"/>
<path id="Vector_4" fill-rule="evenodd" clip-rule="evenodd" d="M173.603 12.1899H189.327C190.639 12.1899 191.584 13.2252 191.221 14.2624L189.072 20.391H181.734L182.752 17.4895C182.849 17.2131 182.598 16.9387 182.249 16.9387H172.727C172.261 16.9387 171.85 17.1923 171.721 17.5633L170.124 22.119H188.468L185.137 31.6146H177.799L179.769 26.0028H168.763L166.794 31.6146H159.456L165.504 14.3741C165.957 13.0814 167.396 12.1918 169.03 12.1918H173.608L173.603 12.1899Z" fill="white"/>
<path id="Vector_5" fill-rule="evenodd" clip-rule="evenodd" d="M193.951 16.937L195.617 12.1882H213.961L217.629 12.1655H217.84C219.576 12.1769 220.821 13.551 220.339 14.9232L214.485 31.611H207.147L211.909 18.0385C212.102 17.4859 211.599 16.9351 210.902 16.9351H193.951V16.937ZM193.347 18.6631H200.685L196.141 31.6129H188.803L193.347 18.6631Z" fill="white"/>
<path id="Vector_6" fill-rule="evenodd" clip-rule="evenodd" d="M74.2492 23.1418C73.7091 22.4945 72.9346 21.9835 71.9211 21.6144C73.2472 21.1507 74.2813 20.5129 75.0236 19.6971C75.766 18.8644 76.136 17.901 76.136 16.8089C76.136 15.3269 75.4166 14.1875 73.978 13.3926C72.737 12.6904 71.0042 12.2911 68.7773 12.1926H68.7451C68.3981 12.1775 68.0395 12.1699 67.6695 12.1699H53.5772L51.9111 16.9395H67.203C68.251 16.9395 68.775 17.5527 68.775 18.2341C68.775 19.5287 67.203 19.9602 66.1551 19.9602H58.1873L58.6424 18.6656H51.3043L46.7632 31.6154H64.0591C64.0844 31.6154 64.1097 31.6154 64.1327 31.6154H65.1048V31.5965C67.8695 31.4943 70.163 30.9832 71.9832 30.0596C74.0515 29.0224 75.0857 27.4761 75.0857 25.4206C75.0857 24.5311 74.8053 23.7721 74.2423 23.1418H74.2492ZM64.8198 26.8666C65.4771 26.8647 66.0378 26.8383 66.4584 26.5865C66.9525 26.2723 67.2007 25.8276 67.2007 25.2522C67.2007 24.8453 66.9456 24.4913 66.6836 24.2755C66.4216 24.0598 65.9344 23.844 65.3737 23.844H56.8314L55.772 26.8647H64.8221L64.8198 26.8666Z" fill="white"/>
<path id="Vector_7" fill-rule="evenodd" clip-rule="evenodd" d="M241.737 12.2229H224.441L222.784 16.9489H230.731V16.9717H238.124C239.098 16.9717 239.802 17.742 239.53 18.5123L237.196 25.1727H244.534L247.62 16.3698C248.349 14.2935 246.457 12.2229 243.835 12.2229H241.739H241.737ZM229.515 18.6751H222.177L217.627 31.6457H234.923V31.623L236.26 31.6267C239.811 31.6381 242.941 29.7057 243.927 26.8969H226.631L229.515 18.6732V18.6751Z" fill="white"/>
<path id="Vector_8" fill-rule="evenodd" clip-rule="evenodd" d="M16.6986 8.04522L0.974609 0.707275V35.2394L16.6986 27.9014V8.04522ZM32.9374 20.995L19.3208 14.5201L19.176 29.4042L3.59681 36.9504L17.2134 43.4252L32.7903 35.8791L32.9351 20.995H32.9374Z" fill="#BB1D1E"/>
</g>
</svg>
