<svg width="80" height="85" viewBox="0 0 80 85" fill="none" xmlns="http://www.w3.org/2000/svg">
<g id="Group">
<path id="Vector" d="M39.8907 0.00193743C41.2846 0.00193743 42.6572 0.0923779 43.934 0.305179C45.1914 0.469954 46.4322 0.744087 47.642 1.12446C48.855 1.49154 50.0413 1.94907 51.2277 2.52363C52.3822 3.07159 53.5685 3.74192 54.7549 4.47076C56.7605 5.74757 58.7343 6.77965 60.7452 7.60426C64.7041 9.18874 68.8903 10.1316 73.1462 10.3973C75.3062 10.5515 77.5246 10.642 79.8335 10.642V31.9221C79.8335 35.9653 79.3175 39.7957 78.2854 43.4453C77.294 47.0427 75.8852 50.5119 74.0879 53.7821C72.2981 57.0477 70.1804 60.1226 67.7677 62.9591C65.3179 65.8602 62.6654 68.5838 59.8302 71.1094C56.9575 73.6425 53.9318 75.9966 50.7702 78.1584C47.6101 80.3503 44.4181 82.3879 41.2261 84.2392L39.9493 85L38.6725 84.2392C35.3911 82.3395 32.1859 80.311 29.0645 78.1584C25.8852 76.021 22.8579 73.6656 20.0045 71.1094C17.171 68.5837 14.5203 65.8601 12.0723 62.9591C9.66604 60.1105 7.5389 57.0374 5.72021 53.7821C3.9536 50.4974 2.5463 47.0317 1.52271 43.4453C0.484077 39.6933 -0.027998 35.8151 0.00117999 31.9221V10.642C2.31539 10.642 4.53384 10.5515 6.69377 10.3973C8.81998 10.2496 10.9324 9.94552 13.014 9.48754C15.0515 9.03002 17.0891 8.42354 19.0948 7.60426C21.176 6.7643 23.1713 5.72564 25.0532 4.50268C27.394 2.98115 29.7667 1.85863 32.1075 1.11914C34.6285 0.346311 37.2542 -0.030576 39.8907 0.00193743ZM74.4816 15.8716C70.4544 15.6762 66.4648 15.0029 62.5966 13.8659C58.7489 12.7182 55.0839 11.029 51.7118 8.84914C49.9628 7.70106 48.0632 6.80053 46.0673 6.17317C44.0735 5.57059 42.0001 5.27286 39.9173 5.29004C37.8191 5.27647 35.7304 5.57408 33.7195 6.17317C31.7206 6.78014 29.8235 7.68207 28.0909 8.84914C24.713 11.0409 21.0386 12.7375 17.1795 13.8872C13.4076 14.9831 9.46019 15.6535 5.32121 15.8982V31.9487C5.32121 35.4759 5.77873 38.8488 6.69377 42.0993C7.62598 45.3216 8.91054 48.4313 10.5242 51.3721C12.1572 54.3435 14.0819 57.145 16.2698 59.7352C18.4883 62.3473 20.8557 64.7786 23.4093 67.0875C25.9629 69.4017 28.6389 71.5297 31.4372 73.5034C34.2621 75.4825 37.0924 77.2753 39.9173 78.9139C42.8099 77.2299 45.6303 75.4248 48.3709 73.5034C51.1877 71.5359 53.8778 69.393 56.4254 67.0875C58.979 64.7786 61.3517 62.3473 63.5702 59.7352C65.7584 57.1452 67.6831 54.3437 69.3158 51.3721C70.9223 48.435 72.1878 45.3239 73.0877 42.0993C74.0305 38.7988 74.4998 35.3812 74.4816 31.9487V15.8716Z" fill="#BB1D1E"/>
<path id="Vector_2" fill-rule="evenodd" clip-rule="evenodd" d="M63.5546 24.011L61.2138 22L59.0538 22.1862L35.8585 49.5737L27.9583 38.2952L25.8303 37.9335L23.3671 39.6944L23 41.8224L33.1559 56.3248L34.3104 56.9632L36.7416 57.1122L37.9865 56.5695L63.7088 26.1656L63.5546 24.011Z" fill="#BB1D1E"/>
</g>
</svg>
