<svg width="23" height="23" viewBox="0 0 23 23" fill="none" xmlns="http://www.w3.org/2000/svg">
<path id="Vector" d="M21.8927 15.4628L16.475 13.0351L16.4601 13.0282C16.1788 12.9079 15.872 12.8597 15.5674 12.8878C15.2628 12.9159 14.97 13.0195 14.7155 13.1892C14.6856 13.209 14.6568 13.2305 14.6293 13.2536L11.8301 15.6399C10.0568 14.7786 8.22602 12.9615 7.36466 11.2112L9.75438 8.36955C9.77738 8.3408 9.79923 8.31205 9.81993 8.281C9.98602 8.02719 10.0868 7.73626 10.1133 7.4341C10.1398 7.13193 10.0911 6.82791 9.97173 6.54908V6.53528L7.53716 1.10838C7.37931 0.744129 7.10789 0.440699 6.76342 0.243384C6.41895 0.0460689 6.0199 -0.034548 5.62585 0.0135674C4.06755 0.218622 2.63719 0.98391 1.60189 2.1665C0.566605 3.34909 -0.00280709 4.8681 1.0406e-05 6.43983C1.0406e-05 15.5709 7.42906 23 16.5601 23C18.1319 23.0028 19.6509 22.4334 20.8334 21.3981C22.016 20.3628 22.7813 18.9324 22.9864 17.3741C23.0346 16.9802 22.9541 16.5813 22.757 16.2368C22.5599 15.8924 22.2567 15.6209 21.8927 15.4628ZM16.5601 21.16C12.6574 21.1557 8.91578 19.6035 6.15615 16.8438C3.39652 14.0842 1.84428 10.3425 1.84002 6.43983C1.8357 5.31683 2.24028 4.23065 2.97823 3.38414C3.71617 2.53763 4.73701 1.98867 5.8501 1.83978C5.84965 1.84437 5.84965 1.849 5.8501 1.85359L8.26512 7.25864L5.88805 10.1038C5.86392 10.1315 5.84201 10.1611 5.8225 10.1923C5.64944 10.4579 5.54792 10.7636 5.52777 11.08C5.50762 11.3963 5.56953 11.7125 5.7075 11.9978C6.74941 14.1288 8.89647 16.2598 11.0504 17.3005C11.3379 17.4372 11.6559 17.497 11.9734 17.474C12.2908 17.451 12.5969 17.3461 12.8617 17.1694C12.8912 17.1495 12.9196 17.128 12.9468 17.105L15.7425 14.7199L21.1475 17.1407H21.1602C21.0131 18.2553 20.465 19.2782 19.6183 20.018C18.7716 20.7578 17.6844 21.1638 16.5601 21.16Z" fill="#BB1D1E"/>
</svg>
