<svg width="68" height="68" viewBox="0 0 68 68" fill="none" xmlns="http://www.w3.org/2000/svg">
<path id="Vector" d="M34 0C15.232 0 0 15.232 0 34C0 52.768 15.232 68 34 68C52.768 68 68 52.768 68 34C68 15.232 52.768 0 34 0ZM49.776 23.12C49.266 28.492 47.056 41.548 45.934 47.566C45.458 50.116 44.506 50.966 43.622 51.068C41.65 51.238 40.154 49.776 38.25 48.518C35.258 46.546 33.558 45.322 30.668 43.418C27.302 41.208 29.478 39.984 31.416 38.012C31.926 37.502 40.63 29.58 40.8 28.866C40.8236 28.7579 40.8205 28.6456 40.7908 28.5389C40.7612 28.4323 40.706 28.3345 40.63 28.254C40.426 28.084 40.154 28.152 39.916 28.186C39.61 28.254 34.85 31.416 25.568 37.672C24.208 38.59 22.984 39.066 21.896 39.032C20.672 38.998 18.36 38.352 16.626 37.774C14.484 37.094 12.818 36.72 12.954 35.53C13.022 34.918 13.872 34.306 15.47 33.66C25.398 29.342 31.994 26.486 35.292 25.126C44.744 21.182 46.682 20.502 47.974 20.502C48.246 20.502 48.892 20.57 49.3 20.91C49.64 21.182 49.742 21.556 49.776 21.828C49.742 22.032 49.81 22.644 49.776 23.12Z" fill="white"/>
</svg>
