<svg width="68" height="45" viewBox="0 0 68 45" fill="none" xmlns="http://www.w3.org/2000/svg">
<path id="Vector" d="M27.2 32.1429L44.846 22.5L27.2 12.8571V32.1429ZM66.504 6.975C66.946 8.48571 67.252 10.5107 67.456 13.0821C67.694 15.6536 67.796 17.8714 67.796 19.8L68 22.5C68 29.5393 67.456 34.7143 66.504 38.025C65.654 40.9179 63.682 42.7821 60.622 43.5857C59.024 44.0036 56.1 44.2929 51.612 44.4857C47.192 44.7107 43.146 44.8071 39.406 44.8071L34 45C19.754 45 10.88 44.4857 7.378 43.5857C4.318 42.7821 2.346 40.9179 1.496 38.025C1.054 36.5143 0.748 34.4893 0.544 31.9179C0.306 29.3464 0.204 27.1286 0.204 25.2L0 22.5C0 15.4607 0.544 10.2857 1.496 6.975C2.346 4.08214 4.318 2.21786 7.378 1.41429C8.976 0.996429 11.9 0.707142 16.388 0.514285C20.808 0.289285 24.854 0.192857 28.594 0.192857L34 0C48.246 0 57.12 0.514286 60.622 1.41429C63.682 2.21786 65.654 4.08214 66.504 6.975Z" fill="white"/>
</svg>
