<svg width="26" height="21" viewBox="0 0 26 21" fill="none" xmlns="http://www.w3.org/2000/svg">
<path id="Vector" d="M22.888 3.93094C22.7892 3.53981 22.5084 3.2445 22.1873 3.15394C21.6179 2.9925 18.8504 2.625 13.0007 2.625C7.15094 2.625 4.38468 2.9925 3.81141 3.15394C3.49423 3.24319 3.21344 3.5385 3.11334 3.93094C2.97165 4.48744 2.60117 6.81844 2.60117 10.5C2.60117 14.1803 2.97165 16.5113 3.11334 17.0704C3.21214 17.4602 3.49293 17.7555 3.81271 17.8448C4.38468 18.0075 7.14964 18.375 12.9993 18.375C18.8491 18.375 21.6166 18.0075 22.1886 17.8461C22.5058 17.7568 22.7866 17.4615 22.8867 17.0691C23.0296 16.5126 23.3988 14.175 23.3988 10.5C23.3988 6.825 23.0296 4.48875 22.888 3.93094ZM25.4059 3.27863C26 5.6175 26 10.5 26 10.5C26 10.5 26 15.3825 25.4059 17.7214C25.0757 19.0142 24.1099 20.0314 22.8867 20.3752C20.6651 21 12.9993 21 12.9993 21C12.9993 21 5.33883 21 3.11334 20.3752C1.88491 20.0261 0.920354 19.0103 0.59407 17.7214C3.87411e-08 15.3825 0 10.5 0 10.5C0 10.5 3.87411e-08 5.6175 0.59407 3.27863C0.924254 1.98581 1.89011 0.968625 3.11334 0.62475C5.34013 -2.34693e-07 13.0007 0 13.0007 0C13.0007 0 20.6651 -2.34693e-07 22.8867 0.62475C24.1138 0.973875 25.0796 1.98975 25.4059 3.27863ZM10.4008 15.0938V5.90625L18.2004 10.5L10.4008 15.0938Z" fill="black"/>
</svg>
